<svg xmlns="http://www.w3.org/2000/svg" xmlns:xlink="http://www.w3.org/1999/xlink" width="500" zoomAndPan="magnify" viewBox="0 0 375 374.999991" height="500" preserveAspectRatio="xMidYMid meet" version="1.0"><defs><g/><clipPath id="id1"><path d="M 167.03125 157.910156 L 279 157.910156 L 279 183 L 167.03125 183 Z M 167.03125 157.910156 " clip-rule="nonzero"/></clipPath><clipPath id="id2"><path d="M 213 177 L 268 177 L 268 206.660156 L 213 206.660156 Z M 213 177 " clip-rule="nonzero"/></clipPath><clipPath id="id3"><path d="M 241 178 L 279.53125 178 L 279.53125 200 L 241 200 Z M 241 178 " clip-rule="nonzero"/></clipPath></defs><rect x="-37.5" width="450" fill="#ffffff" y="-37.499999" height="449.999989" fill-opacity="1"/><rect x="-37.5" width="450" fill="#ffffff" y="-37.499999" height="449.999989" fill-opacity="1"/><rect x="-37.5" width="450" fill="#ffffff" y="-37.499999" height="449.999989" fill-opacity="1"/><rect x="-37.5" width="450" fill="#ffffff" y="-37.499999" height="449.999989" fill-opacity="1"/><g clip-path="url(#id1)"><path fill="#004aad" d="M 178.117188 174.828125 C 179.339844 174.496094 180.648438 174.214844 182.035156 173.933594 L 184.164062 173.5 C 184.894531 173.34375 185.640625 173.183594 186.40625 172.964844 C 187.925781 172.53125 189.476562 171.863281 190.910156 170.902344 C 191.628906 170.425781 192.3125 169.878906 192.972656 169.308594 C 193.636719 168.734375 194.273438 168.132812 194.921875 167.542969 C 196.210938 166.351562 197.5625 165.226562 199.109375 164.300781 C 200.644531 163.375 202.363281 162.632812 204.160156 162.0625 C 205.953125 161.519531 207.894531 161.175781 209.878906 160.902344 C 213.859375 160.371094 218.050781 160.121094 222.339844 159.984375 C 226.628906 159.859375 230.832031 159.851562 234.871094 159.996094 C 238.90625 160.152344 242.796875 160.476562 246.433594 161.089844 C 248.253906 161.398438 250.011719 161.78125 251.675781 162.273438 C 253.339844 162.765625 254.914062 163.367188 256.320312 164.136719 C 257.023438 164.523438 257.679688 164.953125 258.273438 165.433594 L 258.734375 165.8125 C 258.890625 165.941406 259.050781 166.066406 259.207031 166.1875 C 259.523438 166.433594 259.84375 166.667969 260.164062 166.894531 C 261.449219 167.800781 262.765625 168.546875 264.070312 169.148438 C 266.675781 170.363281 269.195312 170.984375 271.359375 171.5625 C 272.441406 171.855469 273.445312 172.140625 274.324219 172.503906 C 275.207031 172.863281 275.960938 173.308594 276.535156 173.839844 C 277.109375 174.367188 277.492188 174.964844 277.746094 175.507812 C 278 176.054688 278.140625 176.550781 278.230469 176.953125 C 278.410156 177.761719 278.421875 178.203125 278.429688 178.199219 C 278.421875 178.203125 278.410156 177.765625 278.253906 176.949219 C 278.167969 176.542969 278.046875 176.042969 277.804688 175.484375 C 277.566406 174.925781 277.199219 174.304688 276.632812 173.742188 C 276.066406 173.171875 275.308594 172.679688 274.425781 172.273438 C 273.542969 171.863281 272.542969 171.527344 271.472656 171.183594 C 269.328125 170.503906 266.878906 169.765625 264.40625 168.46875 C 263.171875 167.824219 261.941406 167.046875 260.746094 166.121094 C 260.445312 165.886719 260.148438 165.648438 259.855469 165.398438 C 259.707031 165.273438 259.5625 165.148438 259.417969 165.019531 L 258.972656 164.617188 C 258.34375 164.0625 257.652344 163.566406 256.914062 163.121094 C 255.441406 162.230469 253.808594 161.535156 252.097656 160.957031 C 250.382812 160.382812 248.582031 159.929688 246.722656 159.554688 C 243.003906 158.808594 239.054688 158.386719 234.957031 158.160156 C 230.855469 157.949219 226.621094 157.921875 222.28125 158.046875 C 217.941406 158.1875 213.699219 158.46875 209.613281 159.085938 C 208.59375 159.242188 207.582031 159.421875 206.585938 159.636719 C 205.585938 159.855469 204.597656 160.105469 203.628906 160.433594 C 202.660156 160.761719 201.742188 161.132812 200.84375 161.558594 C 199.949219 161.980469 199.089844 162.457031 198.273438 162.980469 C 197.460938 163.507812 196.695312 164.082031 195.980469 164.6875 C 195.265625 165.292969 194.601562 165.921875 193.964844 166.546875 C 192.703125 167.800781 191.53125 169.003906 190.234375 169.941406 C 188.945312 170.886719 187.542969 171.570312 186.113281 172.046875 C 185.40625 172.285156 184.679688 172.476562 183.964844 172.664062 L 181.863281 173.199219 C 180.488281 173.546875 179.179688 173.894531 177.957031 174.289062 C 176.734375 174.683594 175.601562 175.121094 174.578125 175.605469 C 172.523438 176.570312 170.9375 177.757812 169.832031 178.890625 C 168.71875 180.019531 168.046875 181.0625 167.628906 181.773438 C 167.214844 182.492188 167.039062 182.890625 167.035156 182.890625 C 167.035156 182.890625 167.214844 182.492188 167.648438 181.785156 C 168.082031 181.082031 168.785156 180.066406 169.929688 178.988281 C 170.503906 178.453125 171.1875 177.90625 171.992188 177.390625 C 172.792969 176.875 173.714844 176.390625 174.738281 175.960938 C 175.765625 175.53125 176.898438 175.15625 178.117188 174.828125 Z M 178.117188 174.828125 " fill-opacity="1" fill-rule="evenodd"/></g><path fill="#004aad" d="M 218.558594 176.082031 C 219.472656 175.921875 220.394531 175.773438 221.320312 175.625 C 225.035156 175.042969 228.671875 174.554688 232.195312 174.140625 C 235.714844 173.726562 239.117188 173.394531 242.367188 173.140625 C 248.863281 172.628906 254.734375 172.4375 259.664062 172.542969 C 262.128906 172.59375 264.359375 172.714844 266.308594 172.882812 C 268.261719 173.050781 269.9375 173.261719 271.300781 173.476562 C 272.664062 173.691406 273.714844 173.90625 274.421875 174.0625 C 275.132812 174.222656 275.5 174.320312 275.5 174.316406 C 275.5 174.320312 275.132812 174.222656 274.425781 174.054688 C 273.71875 173.886719 272.671875 173.652344 271.3125 173.410156 C 269.953125 173.164062 268.28125 172.90625 266.328125 172.6875 C 264.378906 172.46875 262.148438 172.28125 259.679688 172.164062 C 254.738281 171.925781 248.839844 171.960938 242.3125 172.359375 C 239.660156 172.519531 236.898438 172.746094 234.058594 173.027344 C 234.121094 172.785156 234.207031 172.480469 234.316406 172.109375 C 234.460938 171.628906 234.648438 171.042969 234.898438 170.375 C 235.144531 169.707031 235.457031 168.960938 235.859375 168.164062 C 236.261719 167.371094 236.757812 166.53125 237.402344 165.726562 C 238.046875 164.925781 238.855469 164.160156 239.851562 163.644531 C 240.351562 163.386719 240.894531 163.195312 241.464844 163.085938 C 241.753906 163.027344 242.039062 163 242.355469 162.976562 C 242.667969 162.949219 242.980469 162.933594 243.296875 162.921875 C 244.566406 162.878906 245.886719 162.960938 247.21875 163.160156 C 249.894531 163.5625 252.371094 164.371094 254.550781 165.277344 C 254.824219 165.390625 255.089844 165.507812 255.355469 165.621094 C 255.621094 165.738281 255.867188 165.851562 256.113281 165.980469 C 256.597656 166.234375 257.054688 166.519531 257.492188 166.808594 C 258.371094 167.386719 259.171875 167.972656 259.925781 168.472656 C 260.679688 168.980469 261.382812 169.40625 262.023438 169.742188 C 262.664062 170.074219 263.238281 170.316406 263.714844 170.488281 C 264.195312 170.65625 264.574219 170.757812 264.832031 170.820312 C 265.09375 170.882812 265.230469 170.914062 265.226562 170.914062 C 265.230469 170.910156 265.089844 170.882812 264.835938 170.8125 C 264.582031 170.738281 264.207031 170.617188 263.742188 170.421875 C 263.277344 170.222656 262.726562 169.945312 262.121094 169.570312 C 261.515625 169.195312 260.855469 168.71875 260.148438 168.164062 C 259.441406 167.613281 258.6875 166.976562 257.835938 166.328125 C 257.40625 166.003906 256.953125 165.679688 256.453125 165.378906 C 256.203125 165.226562 255.933594 165.085938 255.675781 164.957031 C 255.414062 164.824219 255.144531 164.691406 254.871094 164.5625 C 253.78125 164.046875 252.605469 163.558594 251.347656 163.152344 C 250.09375 162.742188 248.757812 162.40625 247.363281 162.199219 C 245.972656 161.992188 244.585938 161.925781 243.257812 162.003906 C 242.921875 162.023438 242.59375 162.050781 242.269531 162.085938 C 241.949219 162.121094 241.609375 162.167969 241.285156 162.242188 C 240.632812 162.394531 240.019531 162.644531 239.472656 162.960938 C 238.375 163.601562 237.554688 164.488281 236.929688 165.375 C 236.304688 166.265625 235.863281 167.167969 235.511719 168.007812 C 235.164062 168.847656 234.910156 169.625 234.710938 170.3125 C 234.511719 171 234.363281 171.601562 234.25 172.089844 C 234.164062 172.472656 234.09375 172.785156 234.042969 173.027344 C 233.402344 173.089844 232.761719 173.15625 232.113281 173.226562 C 232.117188 173.214844 232.125 173.207031 232.132812 173.199219 C 232.367188 172.851562 232.546875 172.511719 232.722656 172.167969 C 232.898438 171.824219 233.058594 171.480469 233.210938 171.132812 C 233.511719 170.441406 233.78125 169.742188 234.023438 169.042969 C 234.265625 168.339844 234.480469 167.632812 234.660156 166.921875 C 234.839844 166.207031 234.988281 165.488281 235.0625 164.75 C 235.101562 164.382812 235.117188 164.007812 235.09375 163.625 C 235.082031 163.429688 235.058594 163.234375 235.015625 163.035156 C 234.992188 162.933594 234.964844 162.832031 234.929688 162.730469 C 234.910156 162.679688 234.890625 162.628906 234.867188 162.578125 C 234.839844 162.515625 234.800781 162.449219 234.765625 162.394531 C 234.613281 162.175781 234.433594 162.035156 234.257812 161.921875 C 234.085938 161.808594 233.910156 161.722656 233.734375 161.644531 C 233.386719 161.492188 233.042969 161.386719 232.695312 161.292969 C 232.007812 161.113281 231.328125 160.992188 230.652344 160.898438 C 229.980469 160.800781 229.3125 160.730469 228.65625 160.675781 C 226.027344 160.460938 223.527344 160.449219 221.195312 160.496094 C 218.859375 160.546875 216.691406 160.679688 214.714844 160.851562 C 210.765625 161.195312 207.589844 161.71875 205.441406 162.257812 C 204.363281 162.527344 203.546875 162.800781 203.007812 163.019531 C 202.46875 163.242188 202.203125 163.394531 202.203125 163.394531 C 202.203125 163.394531 202.46875 163.242188 203.011719 163.03125 C 203.554688 162.820312 204.375 162.5625 205.457031 162.328125 C 207.617188 161.847656 210.796875 161.4375 214.742188 161.226562 C 216.714844 161.121094 218.878906 161.0625 221.199219 161.082031 C 223.519531 161.101562 226 161.183594 228.582031 161.453125 C 229.226562 161.519531 229.878906 161.601562 230.53125 161.707031 C 231.179688 161.816406 231.835938 161.941406 232.46875 162.121094 C 232.78125 162.210938 233.09375 162.316406 233.378906 162.445312 C 233.519531 162.507812 233.652344 162.578125 233.769531 162.65625 C 233.882812 162.734375 233.976562 162.820312 234.019531 162.890625 C 234.03125 162.90625 234.039062 162.917969 234.046875 162.9375 C 234.058594 162.964844 234.070312 162.996094 234.078125 163.027344 C 234.101562 163.085938 234.117188 163.15625 234.132812 163.226562 C 234.164062 163.367188 234.179688 163.519531 234.1875 163.675781 C 234.203125 163.988281 234.183594 164.320312 234.148438 164.65625 C 234.070312 165.324219 233.921875 166.007812 233.746094 166.6875 C 233.566406 167.367188 233.355469 168.050781 233.117188 168.730469 C 232.878906 169.40625 232.613281 170.082031 232.320312 170.75 C 232.171875 171.082031 232.019531 171.410156 231.855469 171.734375 C 231.691406 172.054688 231.519531 172.375 231.328125 172.652344 C 231.316406 172.664062 231.332031 172.65625 231.320312 172.65625 L 230.824219 172.574219 C 230.453125 172.511719 230.082031 172.453125 229.710938 172.398438 C 228.96875 172.289062 228.230469 172.191406 227.496094 172.101562 C 226.027344 171.925781 224.582031 171.785156 223.15625 171.667969 C 220.308594 171.4375 217.558594 171.296875 214.9375 171.214844 C 209.695312 171.054688 204.972656 171.117188 201.011719 171.28125 C 197.054688 171.449219 193.855469 171.726562 191.660156 172.03125 C 190.5625 172.183594 189.714844 172.339844 189.148438 172.472656 C 188.582031 172.601562 188.289062 172.703125 188.289062 172.699219 C 188.289062 172.703125 188.582031 172.605469 189.152344 172.480469 C 189.722656 172.359375 190.570312 172.21875 191.667969 172.101562 C 193.867188 171.855469 197.070312 171.691406 201.023438 171.664062 C 204.976562 171.632812 209.6875 171.722656 214.90625 171.996094 C 217.511719 172.136719 220.25 172.320312 223.074219 172.585938 C 224.488281 172.71875 225.921875 172.871094 227.375 173.050781 C 228.101562 173.144531 228.832031 173.246094 229.566406 173.355469 C 229.761719 173.382812 229.960938 173.417969 230.15625 173.449219 C 227.226562 173.789062 224.226562 174.1875 221.171875 174.667969 C 220.242188 174.816406 219.316406 174.96875 218.394531 175.128906 C 217.472656 175.296875 216.570312 175.453125 215.648438 175.664062 C 214.730469 175.882812 213.828125 176.1875 212.980469 176.59375 C 212.132812 176.996094 211.34375 177.511719 210.632812 178.082031 C 209.917969 178.652344 209.273438 179.273438 208.648438 179.867188 C 208.019531 180.46875 207.402344 181.042969 206.75 181.554688 C 205.453125 182.589844 204.003906 183.351562 202.496094 183.875 C 200.992188 184.40625 199.445312 184.730469 197.933594 184.949219 C 196.421875 185.167969 194.929688 185.28125 193.488281 185.339844 C 192.042969 185.402344 190.652344 185.398438 189.300781 185.386719 L 185.425781 185.390625 C 182.960938 185.382812 180.734375 185.296875 178.796875 185.035156 C 176.863281 184.773438 175.203125 184.335938 174.039062 183.601562 C 173.457031 183.238281 173.019531 182.796875 172.75 182.339844 C 172.480469 181.886719 172.378906 181.441406 172.34375 181.085938 C 172.308594 180.726562 172.335938 180.449219 172.355469 180.265625 C 172.375 180.128906 172.390625 180.042969 172.398438 180.007812 C 172.390625 180.042969 172.375 180.128906 172.355469 180.265625 C 172.335938 180.449219 172.304688 180.722656 172.335938 181.085938 C 172.363281 181.441406 172.460938 181.894531 172.722656 182.355469 C 172.984375 182.820312 173.421875 183.277344 174 183.660156 C 175.164062 184.429688 176.828125 184.910156 178.765625 185.226562 C 180.707031 185.542969 182.949219 185.691406 185.417969 185.769531 L 189.292969 185.867188 C 190.636719 185.914062 192.046875 185.957031 193.507812 185.925781 C 194.964844 185.898438 196.476562 185.820312 198.027344 185.632812 C 199.574219 185.4375 201.167969 185.140625 202.753906 184.613281 C 203.542969 184.351562 204.328125 184.027344 205.089844 183.632812 C 205.855469 183.238281 206.589844 182.765625 207.28125 182.230469 C 208.679688 181.171875 209.859375 179.859375 211.207031 178.800781 C 211.882812 178.269531 212.609375 177.808594 213.390625 177.441406 C 214.171875 177.070312 215.007812 176.796875 215.871094 176.59375 C 216.730469 176.398438 217.652344 176.242188 218.558594 176.082031 Z M 218.558594 176.082031 " fill-opacity="1" fill-rule="evenodd"/><path fill="#004aad" d="M 172.390625 180.007812 C 172.394531 179.992188 172.394531 179.988281 172.394531 179.988281 C 172.394531 179.988281 172.394531 179.992188 172.390625 180.007812 Z M 172.390625 180.007812 " fill-opacity="1" fill-rule="evenodd"/><path fill="#004aad" d="M 213.738281 201.480469 C 213.714844 201.488281 213.695312 201.492188 213.695312 201.492188 C 213.695312 201.492188 213.710938 201.488281 213.738281 201.480469 Z M 213.738281 201.480469 " fill-opacity="1" fill-rule="evenodd"/><g clip-path="url(#id2)"><path fill="#004aad" d="M 246.328125 196.148438 C 246.660156 196.085938 246.996094 196.015625 247.308594 195.945312 C 247.390625 195.925781 247.460938 195.914062 247.539062 195.898438 L 247.78125 195.855469 L 248.257812 195.769531 L 250.160156 195.4375 C 251.417969 195.21875 252.648438 194.992188 253.839844 194.742188 C 256.222656 194.238281 258.472656 193.644531 260.480469 192.804688 C 261.480469 192.382812 262.417969 191.898438 263.246094 191.304688 C 263.652344 191.011719 264.042969 190.6875 264.371094 190.324219 C 264.699219 189.964844 264.980469 189.582031 265.230469 189.195312 C 265.71875 188.414062 266.066406 187.609375 266.328125 186.835938 C 266.59375 186.058594 266.773438 185.3125 266.914062 184.609375 C 267.1875 183.199219 267.296875 181.972656 267.371094 180.976562 C 267.441406 179.976562 267.46875 179.199219 267.488281 178.675781 L 267.519531 177.875 L 267.480469 178.675781 C 267.449219 179.199219 267.40625 179.972656 267.3125 180.96875 C 267.210938 181.964844 267.0625 183.183594 266.746094 184.574219 C 266.585938 185.265625 266.382812 186 266.097656 186.753906 C 265.816406 187.503906 265.449219 188.277344 264.949219 189.011719 C 264.699219 189.378906 264.417969 189.734375 264.09375 190.066406 C 263.777344 190.398438 263.402344 190.6875 263 190.960938 C 262.195312 191.5 261.269531 191.941406 260.285156 192.320312 C 258.304688 193.078125 256.074219 193.601562 253.699219 194.042969 C 252.515625 194.261719 251.289062 194.460938 250.03125 194.652344 L 248.121094 194.945312 L 247.636719 195.023438 L 247.394531 195.066406 C 247.308594 195.078125 247.21875 195.09375 247.140625 195.109375 C 246.8125 195.179688 246.5 195.238281 246.175781 195.292969 C 244.882812 195.511719 243.550781 195.65625 242.1875 195.757812 C 241.507812 195.8125 240.816406 195.855469 240.121094 195.890625 L 239.074219 195.945312 L 238.636719 195.96875 L 238.636719 195.964844 L 238.730469 195.457031 C 238.792969 195.082031 238.851562 194.707031 238.902344 194.328125 C 239.003906 193.570312 239.078125 192.804688 239.121094 192.027344 C 239.210938 190.464844 239.179688 188.90625 238.964844 187.378906 C 238.855469 186.613281 238.695312 185.859375 238.464844 185.125 C 238.238281 184.390625 237.9375 183.671875 237.539062 183.011719 C 237.136719 182.351562 236.632812 181.742188 236.023438 181.261719 C 235.414062 180.777344 234.703125 180.425781 233.980469 180.226562 C 233.277344 180.011719 232.5 179.914062 231.757812 179.992188 C 231.011719 180.066406 230.300781 180.304688 229.671875 180.644531 C 229.042969 180.984375 228.488281 181.421875 228 181.890625 C 227.511719 182.363281 227.082031 182.871094 226.695312 183.394531 C 225.929688 184.441406 225.324219 185.542969 224.804688 186.628906 C 223.78125 188.804688 223.09375 190.933594 222.582031 192.898438 C 222.515625 193.15625 222.472656 193.386719 222.402344 193.621094 C 222.339844 193.855469 222.269531 194.085938 222.195312 194.308594 C 222.039062 194.757812 221.859375 195.183594 221.65625 195.582031 C 221.246094 196.382812 220.746094 197.082031 220.207031 197.667969 C 219.128906 198.847656 217.941406 199.609375 216.949219 200.148438 C 215.949219 200.683594 215.125 201 214.5625 201.203125 C 214.117188 201.363281 213.839844 201.449219 213.738281 201.480469 C 213.839844 201.449219 214.121094 201.363281 214.5625 201.214844 C 215.128906 201.019531 215.964844 200.71875 216.984375 200.210938 C 217.996094 199.695312 219.210938 198.96875 220.351562 197.804688 C 220.917969 197.222656 221.457031 196.527344 221.90625 195.714844 C 222.128906 195.3125 222.332031 194.878906 222.507812 194.421875 C 222.59375 194.195312 222.675781 193.960938 222.746094 193.722656 C 222.824219 193.484375 222.882812 193.230469 222.953125 192.996094 C 223.523438 191.070312 224.273438 188.988281 225.335938 186.886719 C 225.875 185.839844 226.492188 184.789062 227.25 183.808594 C 227.632812 183.320312 228.046875 182.851562 228.507812 182.425781 C 228.972656 182.003906 229.480469 181.625 230.039062 181.335938 C 230.191406 181.261719 230.34375 181.191406 230.5 181.128906 C 230.5625 181.15625 230.636719 181.183594 230.730469 181.214844 C 231 181.308594 231.398438 181.4375 231.875 181.664062 C 232.351562 181.890625 232.914062 182.210938 233.488281 182.679688 C 234.066406 183.144531 234.65625 183.757812 235.191406 184.519531 C 236.265625 186.039062 237.105469 188.171875 237.371094 190.636719 C 237.503906 191.867188 237.496094 193.175781 237.328125 194.515625 C 237.160156 195.855469 236.832031 197.21875 236.304688 198.546875 C 235.78125 199.867188 235.089844 201.085938 234.253906 202.128906 C 233.425781 203.164062 232.449219 204.023438 231.402344 204.617188 C 230.355469 205.214844 229.238281 205.535156 228.179688 205.574219 C 227.117188 205.617188 226.125 205.386719 225.289062 205.019531 C 224.449219 204.652344 223.757812 204.152344 223.203125 203.65625 C 222.648438 203.160156 222.226562 202.664062 221.894531 202.246094 C 221.242188 201.398438 220.9375 200.875 220.851562 200.917969 C 220.808594 200.933594 220.832031 201.089844 220.929688 201.367188 C 221.027344 201.644531 221.195312 202.039062 221.476562 202.523438 C 221.753906 203.007812 222.140625 203.582031 222.695312 204.171875 C 223.242188 204.761719 223.960938 205.367188 224.890625 205.84375 C 225.8125 206.320312 226.953125 206.644531 228.199219 206.648438 C 229.441406 206.652344 230.769531 206.316406 231.984375 205.664062 C 233.207031 205.011719 234.316406 204.0625 235.25 202.925781 C 236.1875 201.785156 236.953125 200.457031 237.519531 199.019531 C 237.792969 198.335938 238.007812 197.644531 238.183594 196.949219 L 239.125 196.898438 L 240.179688 196.835938 C 240.878906 196.792969 241.574219 196.742188 242.265625 196.679688 C 243.644531 196.558594 245.003906 196.394531 246.328125 196.148438 Z M 235.929688 183.972656 C 235.296875 183.175781 234.597656 182.550781 233.925781 182.097656 C 233.25 181.644531 232.601562 181.359375 232.058594 181.195312 C 231.617188 181.058594 231.246094 181 230.964844 180.972656 C 231.246094 180.890625 231.539062 180.835938 231.832031 180.8125 C 232.464844 180.761719 233.097656 180.847656 233.734375 181.050781 C 234.367188 181.238281 234.949219 181.539062 235.457031 181.957031 C 235.964844 182.371094 236.394531 182.894531 236.738281 183.480469 C 237.433594 184.664062 237.808594 186.070312 238.007812 187.511719 C 238.042969 187.765625 238.066406 188.019531 238.089844 188.277344 C 237.59375 186.574219 236.832031 185.097656 235.929688 183.972656 Z M 235.929688 183.972656 " fill-opacity="1" fill-rule="evenodd"/></g><path fill="#004aad" d="M 225.902344 196.605469 C 226.007812 197.414062 226.191406 198.335938 226.574219 199.300781 C 226.765625 199.785156 227.011719 200.28125 227.335938 200.757812 C 227.664062 201.230469 228.082031 201.695312 228.628906 202.042969 C 229.167969 202.394531 229.863281 202.597656 230.570312 202.535156 C 231.273438 202.480469 231.949219 202.167969 232.519531 201.742188 C 233.089844 201.3125 233.574219 200.769531 233.992188 200.175781 C 234.410156 199.578125 234.757812 198.925781 235.054688 198.238281 C 235.640625 196.859375 236.011719 195.347656 236.171875 193.78125 C 236.328125 192.214844 236.273438 190.660156 235.972656 189.195312 C 235.820312 188.460938 235.609375 187.753906 235.320312 187.085938 C 235.03125 186.417969 234.667969 185.789062 234.191406 185.257812 C 233.722656 184.726562 233.125 184.289062 232.441406 184.09375 C 231.765625 183.890625 231.042969 183.953125 230.441406 184.191406 C 229.835938 184.421875 229.335938 184.796875 228.917969 185.195312 C 228.503906 185.597656 228.164062 186.035156 227.878906 186.46875 C 227.308594 187.34375 226.941406 188.207031 226.679688 188.980469 C 226.417969 189.753906 226.261719 190.4375 226.164062 191 C 225.96875 192.128906 225.976562 192.761719 226.015625 192.765625 C 226.066406 192.769531 226.144531 192.144531 226.410156 191.050781 C 226.546875 190.507812 226.734375 189.84375 227.019531 189.101562 C 227.308594 188.363281 227.695312 187.535156 228.261719 186.722656 C 228.542969 186.320312 228.871094 185.917969 229.265625 185.558594 C 229.65625 185.199219 230.113281 184.878906 230.632812 184.691406 C 231.148438 184.5 231.730469 184.46875 232.277344 184.636719 C 232.828125 184.804688 233.328125 185.175781 233.742188 185.648438 C 234.15625 186.125 234.488281 186.703125 234.75 187.328125 C 235.011719 187.949219 235.210938 188.621094 235.347656 189.320312 C 235.625 190.714844 235.675781 192.210938 235.523438 193.71875 C 235.371094 195.226562 235.019531 196.679688 234.46875 197.992188 C 234.191406 198.648438 233.867188 199.269531 233.480469 199.828125 C 233.097656 200.382812 232.65625 200.886719 232.15625 201.269531 C 231.65625 201.652344 231.089844 201.917969 230.519531 201.972656 C 229.945312 202.03125 229.382812 201.878906 228.917969 201.589844 C 228.445312 201.304688 228.0625 200.902344 227.753906 200.472656 C 227.441406 200.042969 227.199219 199.582031 227.003906 199.128906 C 226.613281 198.21875 226.398438 197.335938 226.265625 196.554688 C 226.132812 195.769531 226.082031 195.082031 226.058594 194.523438 C 226.019531 193.398438 226.066406 192.769531 226.015625 192.765625 C 225.980469 192.761719 225.84375 193.378906 225.804688 194.523438 C 225.789062 195.09375 225.800781 195.796875 225.902344 196.605469 Z M 225.902344 196.605469 " fill-opacity="1" fill-rule="evenodd"/><g clip-path="url(#id3)"><path fill="#004aad" d="M 279.183594 185.609375 C 279.167969 185.105469 279.132812 184.550781 279.058594 183.945312 C 278.992188 183.425781 278.898438 182.871094 278.757812 182.292969 C 278.613281 181.714844 278.425781 181.105469 278.136719 180.496094 C 277.992188 180.191406 277.820312 179.886719 277.605469 179.597656 C 277.386719 179.308594 277.121094 179.03125 276.773438 178.824219 C 276.429688 178.613281 275.996094 178.5 275.566406 178.542969 C 275.136719 178.578125 274.738281 178.742188 274.378906 178.953125 C 273.664062 179.382812 273.082031 179.992188 272.546875 180.644531 C 271.992188 181.34375 271.636719 182.160156 271.335938 182.992188 C 270.753906 184.671875 270.40625 186.476562 270.058594 188.332031 C 269.886719 189.261719 269.722656 190.203125 269.535156 191.148438 C 269.4375 191.617188 269.339844 192.089844 269.222656 192.558594 C 269.105469 193.023438 268.972656 193.488281 268.804688 193.921875 C 268.761719 194.027344 268.71875 194.132812 268.671875 194.234375 L 268.632812 194.308594 C 268.625 194.332031 268.621094 194.332031 268.613281 194.347656 C 268.597656 194.371094 268.578125 194.398438 268.550781 194.425781 C 268.441406 194.546875 268.265625 194.671875 268.074219 194.78125 C 267.6875 195 267.246094 195.179688 266.800781 195.339844 C 265.910156 195.65625 264.988281 195.902344 264.078125 196.125 C 262.253906 196.566406 260.460938 196.90625 258.753906 197.210938 C 255.332031 197.808594 252.226562 198.253906 249.617188 198.601562 C 247.003906 198.945312 244.882812 199.179688 243.417969 199.3125 C 241.949219 199.449219 241.132812 199.472656 241.132812 199.46875 C 241.132812 199.472656 244.394531 199.394531 249.65625 198.976562 C 252.285156 198.765625 255.417969 198.472656 258.878906 197.980469 C 260.605469 197.730469 262.421875 197.4375 264.289062 197.019531 C 265.222656 196.808594 266.171875 196.570312 267.125 196.238281 C 267.601562 196.070312 268.082031 195.886719 268.558594 195.617188 C 268.796875 195.480469 269.039062 195.328125 269.273438 195.082031 C 269.328125 195.019531 269.386719 194.949219 269.4375 194.867188 C 269.460938 194.828125 269.492188 194.777344 269.507812 194.742188 L 269.53125 194.699219 C 269.601562 194.875 269.714844 195.117188 269.886719 195.414062 C 270.070312 195.730469 270.324219 196.109375 270.683594 196.5 C 271.046875 196.886719 271.519531 197.292969 272.152344 197.574219 C 272.78125 197.855469 273.582031 197.972656 274.390625 197.78125 C 275.195312 197.59375 275.960938 197.117188 276.59375 196.484375 C 277.230469 195.847656 277.75 195.0625 278.167969 194.199219 C 278.582031 193.339844 278.894531 192.394531 279.105469 191.410156 C 279.53125 189.371094 279.511719 187.371094 279.183594 185.609375 Z M 275.625 179.074219 C 275.941406 179.03125 276.253906 179.089844 276.535156 179.242188 C 276.8125 179.390625 277.058594 179.613281 277.265625 179.863281 C 277.472656 180.113281 277.644531 180.386719 277.796875 180.667969 C 278.101562 181.226562 278.3125 181.808594 278.484375 182.367188 C 278.652344 182.925781 278.769531 183.464844 278.863281 183.972656 C 278.902344 184.203125 278.9375 184.425781 278.964844 184.644531 C 278.636719 183.402344 278.144531 182.320312 277.550781 181.476562 C 277.164062 180.933594 276.742188 180.488281 276.316406 180.164062 C 275.894531 179.835938 275.472656 179.632812 275.117188 179.515625 C 274.980469 179.472656 274.859375 179.441406 274.742188 179.417969 C 275.023438 179.242188 275.324219 179.113281 275.625 179.074219 Z M 274.257812 197.261719 C 273.578125 197.445312 272.894531 197.371094 272.332031 197.148438 C 271.761719 196.929688 271.304688 196.585938 270.941406 196.246094 C 270.578125 195.90625 270.308594 195.5625 270.097656 195.277344 C 269.863281 194.953125 269.703125 194.707031 269.597656 194.550781 C 269.636719 194.457031 269.679688 194.367188 269.714844 194.273438 C 270.09375 193.277344 270.289062 192.296875 270.476562 191.332031 C 270.660156 190.367188 270.8125 189.417969 270.96875 188.492188 C 271.277344 186.640625 271.578125 184.855469 272.082031 183.242188 C 272.335938 182.441406 272.644531 181.675781 273.09375 181.066406 C 273.527344 180.488281 274.003906 179.960938 274.53125 179.570312 C 274.675781 179.613281 274.839844 179.667969 275.023438 179.75 C 275.34375 179.894531 275.714844 180.113281 276.085938 180.445312 C 276.457031 180.769531 276.828125 181.203125 277.164062 181.730469 C 277.285156 181.917969 277.398438 182.117188 277.503906 182.328125 C 277.40625 182.214844 277.300781 182.105469 277.183594 182.007812 C 276.972656 181.832031 276.730469 181.6875 276.460938 181.605469 C 276.195312 181.519531 275.902344 181.507812 275.632812 181.5625 C 275.367188 181.617188 275.125 181.738281 274.921875 181.878906 C 274.515625 182.164062 274.230469 182.523438 273.996094 182.882812 C 273.765625 183.246094 273.589844 183.609375 273.441406 183.964844 C 273.15625 184.679688 272.988281 185.347656 272.875 185.9375 C 272.765625 186.53125 272.710938 187.046875 272.683594 187.464844 C 272.632812 188.304688 272.675781 188.773438 272.71875 188.773438 C 272.765625 188.773438 272.808594 188.3125 272.933594 187.492188 C 273 187.082031 273.089844 186.585938 273.230469 186.015625 C 273.375 185.449219 273.566406 184.808594 273.867188 184.144531 C 274.015625 183.816406 274.195312 183.480469 274.414062 183.160156 C 274.632812 182.839844 274.898438 182.535156 275.222656 182.320312 C 275.546875 182.105469 275.925781 182.023438 276.289062 182.144531 C 276.648438 182.265625 276.976562 182.574219 277.234375 182.945312 C 277.5 183.320312 277.707031 183.761719 277.878906 184.226562 C 278.046875 184.695312 278.179688 185.191406 278.277344 185.707031 C 278.476562 186.734375 278.554688 187.828125 278.523438 188.945312 C 278.488281 190.058594 278.347656 191.148438 278.085938 192.160156 C 277.957031 192.667969 277.792969 193.15625 277.597656 193.613281 C 277.398438 194.070312 277.164062 194.496094 276.878906 194.855469 C 276.597656 195.210938 276.253906 195.5 275.886719 195.597656 C 275.519531 195.699219 275.144531 195.59375 274.835938 195.359375 C 274.523438 195.128906 274.277344 194.804688 274.078125 194.476562 C 273.875 194.144531 273.71875 193.796875 273.589844 193.457031 C 273.328125 192.777344 273.175781 192.128906 273.066406 191.554688 C 272.957031 190.980469 272.898438 190.476562 272.859375 190.0625 C 272.78125 189.238281 272.765625 188.773438 272.71875 188.773438 C 272.675781 188.769531 272.605469 189.230469 272.605469 190.074219 C 272.605469 190.496094 272.628906 191.011719 272.707031 191.609375 C 272.785156 192.207031 272.910156 192.886719 273.15625 193.613281 C 273.277344 193.976562 273.433594 194.351562 273.640625 194.726562 C 273.851562 195.097656 274.117188 195.476562 274.507812 195.785156 C 274.703125 195.9375 274.933594 196.070312 275.199219 196.140625 C 275.460938 196.210938 275.753906 196.21875 276.027344 196.148438 C 276.050781 196.144531 276.074219 196.132812 276.101562 196.128906 C 275.550781 196.679688 274.914062 197.085938 274.257812 197.261719 Z M 274.257812 197.261719 " fill-opacity="1" fill-rule="evenodd"/></g><g fill="#fd0000" fill-opacity="1"><g transform="translate(102.47731, 211.243712)"><g><path d="M 23.921875 0 L 21.640625 0 L 21.640625 -8.015625 L 4.828125 -8.015625 L 4.828125 0 L 2.546875 0 L 2.546875 -18.3125 L 4.828125 -18.3125 L 4.828125 -10.296875 L 21.640625 -10.296875 L 21.640625 -18.3125 L 23.921875 -18.3125 Z M 23.921875 0 "/></g></g></g><g fill="#fd0000" fill-opacity="1"><g transform="translate(128.952849, 211.243712)"><g><path d="M 4.828125 0 L 4.828125 -18.3125 L 2.546875 -18.3125 L 2.546875 0 Z M 4.828125 0 "/></g></g></g><g fill="#fd0000" fill-opacity="1"><g transform="translate(136.334837, 211.243712)"><g><path d="M 24.515625 0 L 22.25 0 L 22.25 -5 C 22.25 -5.507812 22.0625 -5.953125 21.6875 -6.328125 C 21.320312 -6.703125 20.878906 -6.890625 20.359375 -6.890625 L 4.828125 -6.890625 L 4.828125 0 L 2.546875 0 L 2.546875 -18.3125 L 20.359375 -18.3125 C 21.503906 -18.3125 22.484375 -17.90625 23.296875 -17.09375 C 24.109375 -16.28125 24.515625 -15.300781 24.515625 -14.15625 L 24.515625 -11.046875 C 24.515625 -9.859375 24.082031 -8.847656 23.21875 -8.015625 C 24.082031 -7.191406 24.515625 -6.1875 24.515625 -5 Z M 20.359375 -9.15625 C 20.878906 -9.15625 21.320312 -9.335938 21.6875 -9.703125 C 22.0625 -10.078125 22.25 -10.523438 22.25 -11.046875 L 22.25 -14.15625 C 22.25 -14.675781 22.0625 -15.117188 21.6875 -15.484375 C 21.320312 -15.859375 20.878906 -16.046875 20.359375 -16.046875 L 4.828125 -16.046875 L 4.828125 -9.15625 Z M 20.359375 -9.15625 "/></g></g></g><g fill="#fd0000" fill-opacity="1"><g transform="translate(162.77206, 211.243712)"><g><path d="M 23.390625 0 L 2.546875 0 L 2.546875 -18.328125 L 23.390625 -18.328125 L 23.390625 -16.046875 L 4.828125 -16.046875 L 4.828125 -10.296875 L 21.234375 -10.296875 L 21.234375 -8.015625 L 4.828125 -8.015625 L 4.828125 -2.265625 L 23.390625 -2.265625 Z M 23.390625 0 "/></g></g></g><g fill="#fd0000" fill-opacity="1"><g transform="translate(188.072611, 211.243712)"><g><path d="M 24.640625 0 L 21.1875 0 L 12.5 -7.640625 L 3.828125 0 L 0.390625 0 L 10.796875 -9.15625 L 0.390625 -18.3125 L 3.828125 -18.3125 L 12.5 -10.671875 L 21.1875 -18.3125 L 24.640625 -18.3125 L 14.234375 -9.15625 Z M 24.640625 0 "/></g></g></g><g fill="#004aad" fill-opacity="1"><g transform="translate(101.928548, 220.877262)"><g><path d="M 5.625 0 L 5.625 -0.65625 L 1.390625 -0.65625 L 1.390625 -5.25 L 0.734375 -5.25 L 0.734375 0 Z M 5.625 0 "/></g></g><g transform="translate(107.817213, 220.877262)"><g><path d="M 6.703125 0 L 0.734375 0 L 0.734375 -5.25 L 6.703125 -5.25 L 6.703125 -4.609375 L 1.390625 -4.609375 L 1.390625 -2.953125 L 6.09375 -2.953125 L 6.09375 -2.296875 L 1.390625 -2.296875 L 1.390625 -0.65625 L 6.703125 -0.65625 Z M 6.703125 0 "/></g></g><g transform="translate(115.071844, 220.877262)"><g><path d="M 3.34375 0 L 2.703125 0 L 2.703125 -4.59375 L 0.109375 -4.59375 L 0.109375 -5.25 L 5.9375 -5.25 L 5.9375 -4.59375 L 3.34375 -4.59375 Z M 3.34375 0 "/></g></g><g transform="translate(121.114318, 220.877262)"><g><path d="M 0.765625 -4.046875 L 0.4375 -4.046875 L 0.4375 -4.5625 L 0.109375 -4.5625 L 0.109375 -5.25 L 0.765625 -5.25 Z M 0.765625 -4.046875 "/></g></g><g transform="translate(121.985899, 220.877262)"><g><path d="M 5.65625 0 L 1.75 0 C 1.414062 0 1.128906 -0.113281 0.890625 -0.34375 C 0.660156 -0.582031 0.546875 -0.863281 0.546875 -1.1875 L 1.203125 -1.1875 C 1.203125 -1.039062 1.253906 -0.914062 1.359375 -0.8125 C 1.460938 -0.707031 1.59375 -0.65625 1.75 -0.65625 L 5.65625 -0.65625 C 5.800781 -0.65625 5.925781 -0.707031 6.03125 -0.8125 C 6.144531 -0.914062 6.203125 -1.039062 6.203125 -1.1875 L 6.203125 -1.765625 C 6.203125 -1.910156 6.144531 -2.035156 6.03125 -2.140625 C 5.925781 -2.242188 5.800781 -2.296875 5.65625 -2.296875 L 1.75 -2.296875 C 1.414062 -2.296875 1.128906 -2.410156 0.890625 -2.640625 C 0.660156 -2.878906 0.546875 -3.164062 0.546875 -3.5 L 0.546875 -4.0625 C 0.546875 -4.382812 0.660156 -4.660156 0.890625 -4.890625 C 1.128906 -5.128906 1.414062 -5.25 1.75 -5.25 L 5.65625 -5.25 C 5.988281 -5.25 6.269531 -5.128906 6.5 -4.890625 C 6.726562 -4.660156 6.84375 -4.382812 6.84375 -4.0625 L 6.203125 -4.0625 C 6.203125 -4.207031 6.144531 -4.332031 6.03125 -4.4375 C 5.925781 -4.539062 5.800781 -4.59375 5.65625 -4.59375 L 1.75 -4.59375 C 1.59375 -4.59375 1.460938 -4.539062 1.359375 -4.4375 C 1.253906 -4.332031 1.203125 -4.207031 1.203125 -4.0625 L 1.203125 -3.5 C 1.203125 -3.34375 1.253906 -3.210938 1.359375 -3.109375 C 1.460938 -3.003906 1.59375 -2.953125 1.75 -2.953125 L 5.65625 -2.953125 C 5.988281 -2.953125 6.269531 -2.832031 6.5 -2.59375 C 6.726562 -2.363281 6.84375 -2.085938 6.84375 -1.765625 L 6.84375 -1.1875 C 6.84375 -0.863281 6.726562 -0.582031 6.5 -0.34375 C 6.269531 -0.113281 5.988281 0 5.65625 0 Z M 5.65625 0 "/></g></g><g transform="translate(129.383351, 220.877262)"><g/></g><g transform="translate(131.243701, 220.877262)"><g><path d="M 6.859375 0 L 6.203125 0 L 6.203125 -2.296875 L 1.390625 -2.296875 L 1.390625 0 L 0.734375 0 L 0.734375 -5.25 L 1.390625 -5.25 L 1.390625 -2.953125 L 6.203125 -2.953125 L 6.203125 -5.25 L 6.859375 -5.25 Z M 6.859375 0 "/></g></g><g transform="translate(138.835245, 220.877262)"><g><path d="M 1.390625 0 L 1.390625 -5.25 L 0.734375 -5.25 L 0.734375 0 Z M 1.390625 0 "/></g></g><g transform="translate(140.951942, 220.877262)"><g><path d="M 7.03125 0 L 6.375 0 L 6.375 -1.4375 C 6.375 -1.582031 6.320312 -1.707031 6.21875 -1.8125 C 6.113281 -1.914062 5.988281 -1.96875 5.84375 -1.96875 L 1.390625 -1.96875 L 1.390625 0 L 0.734375 0 L 0.734375 -5.25 L 5.84375 -5.25 C 6.164062 -5.25 6.441406 -5.128906 6.671875 -4.890625 C 6.910156 -4.660156 7.03125 -4.382812 7.03125 -4.0625 L 7.03125 -3.171875 C 7.03125 -2.828125 6.90625 -2.535156 6.65625 -2.296875 C 6.90625 -2.054688 7.03125 -1.769531 7.03125 -1.4375 Z M 5.84375 -2.625 C 5.988281 -2.625 6.113281 -2.675781 6.21875 -2.78125 C 6.320312 -2.882812 6.375 -3.015625 6.375 -3.171875 L 6.375 -4.0625 C 6.375 -4.207031 6.320312 -4.332031 6.21875 -4.4375 C 6.113281 -4.539062 5.988281 -4.59375 5.84375 -4.59375 L 1.390625 -4.59375 L 1.390625 -2.625 Z M 5.84375 -2.625 "/></g></g><g transform="translate(148.5325, 220.877262)"><g><path d="M 6.703125 0 L 0.734375 0 L 0.734375 -5.25 L 6.703125 -5.25 L 6.703125 -4.609375 L 1.390625 -4.609375 L 1.390625 -2.953125 L 6.09375 -2.953125 L 6.09375 -2.296875 L 1.390625 -2.296875 L 1.390625 -0.65625 L 6.703125 -0.65625 Z M 6.703125 0 "/></g></g><g transform="translate(155.78713, 220.877262)"><g/></g><g transform="translate(157.64748, 220.877262)"><g><path d="M 3.90625 0 L 3.265625 0 L 3.265625 -2.46875 L 0.109375 -5.25 L 1.09375 -5.25 L 3.578125 -3.0625 L 6.078125 -5.25 L 7.0625 -5.25 L 3.90625 -2.46875 Z M 3.90625 0 "/></g></g><g transform="translate(164.821544, 220.877262)"><g><path d="M 5.21875 0 C 5.664062 0 6.046875 -0.15625 6.359375 -0.46875 C 6.679688 -0.789062 6.84375 -1.175781 6.84375 -1.625 L 6.84375 -3.625 C 6.84375 -4.070312 6.679688 -4.453125 6.359375 -4.765625 C 6.046875 -5.085938 5.664062 -5.25 5.21875 -5.25 L 2.171875 -5.25 C 1.722656 -5.25 1.335938 -5.085938 1.015625 -4.765625 C 0.703125 -4.453125 0.546875 -4.070312 0.546875 -3.625 L 0.546875 -1.625 C 0.546875 -1.175781 0.703125 -0.789062 1.015625 -0.46875 C 1.335938 -0.15625 1.722656 0 2.171875 0 Z M 5.21875 -0.65625 L 2.171875 -0.65625 C 1.910156 -0.65625 1.679688 -0.75 1.484375 -0.9375 C 1.296875 -1.132812 1.203125 -1.363281 1.203125 -1.625 L 1.203125 -3.625 C 1.203125 -3.894531 1.296875 -4.125 1.484375 -4.3125 C 1.679688 -4.507812 1.910156 -4.609375 2.171875 -4.609375 L 5.21875 -4.609375 C 5.488281 -4.609375 5.71875 -4.507812 5.90625 -4.3125 C 6.101562 -4.125 6.203125 -3.894531 6.203125 -3.625 L 6.203125 -1.625 C 6.203125 -1.363281 6.101562 -1.132812 5.90625 -0.9375 C 5.71875 -0.75 5.488281 -0.65625 5.21875 -0.65625 Z M 5.21875 -0.65625 "/></g></g><g transform="translate(172.218996, 220.877262)"><g><path d="M 5.21875 0 C 5.664062 0 6.046875 -0.15625 6.359375 -0.46875 C 6.679688 -0.789062 6.84375 -1.175781 6.84375 -1.625 L 6.84375 -5.25 L 6.203125 -5.25 L 6.203125 -1.625 C 6.203125 -1.363281 6.101562 -1.132812 5.90625 -0.9375 C 5.71875 -0.75 5.488281 -0.65625 5.21875 -0.65625 L 2.171875 -0.65625 C 1.910156 -0.65625 1.679688 -0.75 1.484375 -0.9375 C 1.296875 -1.132812 1.203125 -1.363281 1.203125 -1.625 L 1.203125 -5.25 L 0.546875 -5.25 L 0.546875 -1.625 C 0.546875 -1.175781 0.703125 -0.789062 1.015625 -0.46875 C 1.335938 -0.15625 1.722656 0 2.171875 0 Z M 5.21875 0 "/></g></g><g transform="translate(179.616449, 220.877262)"><g><path d="M 7.03125 0 L 6.375 0 L 6.375 -1.4375 C 6.375 -1.582031 6.320312 -1.707031 6.21875 -1.8125 C 6.113281 -1.914062 5.988281 -1.96875 5.84375 -1.96875 L 1.390625 -1.96875 L 1.390625 0 L 0.734375 0 L 0.734375 -5.25 L 5.84375 -5.25 C 6.164062 -5.25 6.441406 -5.128906 6.671875 -4.890625 C 6.910156 -4.660156 7.03125 -4.382812 7.03125 -4.0625 L 7.03125 -3.171875 C 7.03125 -2.828125 6.90625 -2.535156 6.65625 -2.296875 C 6.90625 -2.054688 7.03125 -1.769531 7.03125 -1.4375 Z M 5.84375 -2.625 C 5.988281 -2.625 6.113281 -2.675781 6.21875 -2.78125 C 6.320312 -2.882812 6.375 -3.015625 6.375 -3.171875 L 6.375 -4.0625 C 6.375 -4.207031 6.320312 -4.332031 6.21875 -4.4375 C 6.113281 -4.539062 5.988281 -4.59375 5.84375 -4.59375 L 1.390625 -4.59375 L 1.390625 -2.625 Z M 5.84375 -2.625 "/></g></g><g transform="translate(187.197007, 220.877262)"><g/></g><g transform="translate(189.057356, 220.877262)"><g><path d="M 7.03125 0 L 6.375 0 L 6.375 -1.4375 C 6.375 -1.582031 6.320312 -1.707031 6.21875 -1.8125 C 6.113281 -1.914062 5.988281 -1.96875 5.84375 -1.96875 L 1.390625 -1.96875 L 1.390625 0 L 0.734375 0 L 0.734375 -5.25 L 5.84375 -5.25 C 6.164062 -5.25 6.441406 -5.128906 6.671875 -4.890625 C 6.910156 -4.660156 7.03125 -4.382812 7.03125 -4.0625 L 7.03125 -3.171875 C 7.03125 -2.828125 6.90625 -2.535156 6.65625 -2.296875 C 6.90625 -2.054688 7.03125 -1.769531 7.03125 -1.4375 Z M 5.84375 -2.625 C 5.988281 -2.625 6.113281 -2.675781 6.21875 -2.78125 C 6.320312 -2.882812 6.375 -3.015625 6.375 -3.171875 L 6.375 -4.0625 C 6.375 -4.207031 6.320312 -4.332031 6.21875 -4.4375 C 6.113281 -4.539062 5.988281 -4.59375 5.84375 -4.59375 L 1.390625 -4.59375 L 1.390625 -2.625 Z M 5.84375 -2.625 "/></g></g><g transform="translate(196.637914, 220.877262)"><g><path d="M 1.390625 0 L 1.390625 -5.25 L 0.734375 -5.25 L 0.734375 0 Z M 1.390625 0 "/></g></g><g transform="translate(198.754611, 220.877262)"><g><path d="M 5.40625 0 C 5.851562 0 6.234375 -0.15625 6.546875 -0.46875 C 6.867188 -0.789062 7.03125 -1.175781 7.03125 -1.625 L 7.03125 -3.625 C 7.03125 -4.070312 6.867188 -4.453125 6.546875 -4.765625 C 6.234375 -5.085938 5.851562 -5.25 5.40625 -5.25 L 0.734375 -5.25 L 0.734375 0 Z M 5.40625 -0.65625 L 1.390625 -0.65625 L 1.390625 -4.609375 L 5.40625 -4.609375 C 5.675781 -4.609375 5.90625 -4.507812 6.09375 -4.3125 C 6.28125 -4.125 6.375 -3.894531 6.375 -3.625 L 6.375 -1.625 C 6.375 -1.363281 6.28125 -1.132812 6.09375 -0.9375 C 5.90625 -0.75 5.675781 -0.65625 5.40625 -0.65625 Z M 5.40625 -0.65625 "/></g></g><g transform="translate(206.335169, 220.877262)"><g><path d="M 6.703125 0 L 0.734375 0 L 0.734375 -5.25 L 6.703125 -5.25 L 6.703125 -4.609375 L 1.390625 -4.609375 L 1.390625 -2.953125 L 6.09375 -2.953125 L 6.09375 -2.296875 L 1.390625 -2.296875 L 1.390625 -0.65625 L 6.703125 -0.65625 Z M 6.703125 0 "/></g></g></g></svg>